<svg width="140" height="70" viewBox="0 0 140 70" fill="none" xmlns="http://www.w3.org/2000/svg">
<g opacity="0.4">
<path d="M72.0748 27.3906C72.1931 27.6178 72.2554 27.8684 72.2567 28.1227V40.5693C72.2489 41.0097 72.0644 41.4299 71.742 41.7414C71.4196 42.0528 70.9845 42.2311 70.5287 42.2386H65.3899V43.0001H71.3169C71.7728 42.9925 72.2078 42.8143 72.5302 42.5028C72.8526 42.1914 73.0372 41.7711 73.045 41.3308V28.8842C73.0437 28.5725 72.9521 28.2675 72.7807 28.0035C72.6092 27.7396 72.3647 27.5272 72.0748 27.3906Z" fill="white"/>
<path d="M80.052 27.2148V42.224H78.0397V42.9891H80.8402V27.2148H80.052Z" fill="white"/>
<path d="M92.5123 27.2148V42.224H90.2764L90.5 42.9891H93.3043V27.2148H92.5123Z" fill="white"/>
<path d="M87.6577 35.3527V42.2313H85.6455V42.9964H88.446V37.9848L87.6577 35.3527Z" fill="white"/>
<path d="M99.8869 36.451H102.202V35.6712H99.0986C98.8353 35.67 98.5759 35.6098 98.3407 35.4955C98.478 35.78 98.6963 36.021 98.9701 36.1902C99.2439 36.3594 99.5619 36.4498 99.8869 36.451Z" fill="white"/>
<path d="M100.959 37.4503L100.167 37.6261V39.504H100.959V37.4503Z" fill="white"/>
<path d="M104.844 27.3906C104.962 27.6178 105.024 27.8684 105.026 28.1227V31.3259L102.991 31.7798V32.717L105.814 32.0837V28.8805C105.812 28.5695 105.72 28.2652 105.549 28.002C105.377 27.7387 105.133 27.527 104.844 27.3906Z" fill="white"/>
<path d="M34.9176 27.3906C35.0359 27.6178 35.0982 27.8684 35.0995 28.1227V40.5693C35.0917 41.0097 34.9071 41.4299 34.5847 41.7414C34.2623 42.0528 33.8273 42.2311 33.3714 42.2386H29.1801C28.9168 42.2374 28.6574 42.1772 28.4222 42.0629C28.5634 42.3424 28.7826 42.5782 29.0551 42.7438C29.3276 42.9094 29.6426 42.9982 29.9645 43.0001H34.1634C34.6193 42.9925 35.0543 42.8142 35.3767 42.5028C35.6991 42.1914 35.8837 41.7711 35.8915 41.3308V28.8842C35.8894 28.5722 35.7972 28.2671 35.6251 28.0032C35.453 27.7392 35.2079 27.5271 34.9176 27.3906Z" fill="white"/>
<path d="M42.7545 32.9659H43.5428V29.9201H44.7857V29.155H42.7545V32.9659Z" fill="white"/>
<path d="M47.3968 36.2606C47.6902 36.1292 47.9385 35.9194 48.1125 35.6561C48.2864 35.3927 48.3786 35.0867 48.3783 34.7743V28.8805C48.3786 28.5671 48.2873 28.2601 48.115 27.9946C47.9427 27.7291 47.6964 27.5159 47.4044 27.3796C47.5209 27.6074 47.5831 27.8576 47.5863 28.1117V34.0239C47.5885 34.3362 47.4979 34.6426 47.3252 34.9067C47.1526 35.1707 46.9052 35.3815 46.6123 35.5138L47.7795 42.2313H45.627L45.7597 42.9927H48.5602L47.3968 36.2606Z" fill="white"/>
<path d="M43.827 35.6566H42.7545V42.2313H40.7422V42.9964H43.5428V36.451H43.9596L43.827 35.6566Z" fill="white"/>
<path d="M54.8889 39.4894H55.6809V29.9201H56.9201V29.155H54.8889V39.4894Z" fill="white"/>
<path d="M17.7354 32.9659H18.5237V29.9201H19.7629V29.155H17.7354V32.9659Z" fill="white"/>
<path d="M23.3782 33.5223V28.8805C23.3762 28.5695 23.2843 28.2652 23.1129 28.002C22.9415 27.7387 22.6974 27.527 22.408 27.3906C22.5264 27.6178 22.5886 27.8684 22.5899 28.1227V32.7646C22.5939 33.0091 22.5411 33.2515 22.4355 33.4738C22.33 33.6961 22.1743 33.8928 21.9798 34.0495C22.1728 34.2226 22.3279 34.4314 22.4359 34.6634C22.544 34.8954 22.6028 35.146 22.6089 35.4003V40.562C22.6019 41.009 22.4124 41.4352 22.0816 41.7478C21.7509 42.0605 21.3057 42.2343 20.8429 42.2313H15.7231V42.9927H21.6501C22.106 42.9852 22.541 42.8069 22.8634 42.4955C23.1858 42.184 23.3704 41.7638 23.3782 41.3234V36.1618C23.3708 35.9066 23.3103 35.6555 23.2003 35.4234C23.0903 35.1913 22.9329 34.983 22.7377 34.8109C22.9387 34.6571 23.1007 34.4612 23.2117 34.2379C23.3226 34.0147 23.3796 33.77 23.3782 33.5223Z" fill="white"/>
<path d="M59.7472 28.1227C59.7463 27.8683 59.684 27.6176 59.5653 27.3906C59.8532 27.5289 60.0957 27.7419 60.2656 28.0056C60.4356 28.2693 60.5264 28.5735 60.5278 28.8842V41.3308C60.52 41.7711 60.3355 42.1914 60.0131 42.5028C59.6907 42.8142 59.2556 42.9925 58.7998 43.0001H54.5971C54.2751 42.9982 53.9601 42.9094 53.6876 42.7438C53.4151 42.5782 53.1959 42.3424 53.0547 42.0629C53.2899 42.1772 53.5493 42.2374 53.8126 42.2386H58.0191C58.475 42.2311 58.91 42.0528 59.2324 41.7414C59.5548 41.4299 59.7394 41.0097 59.7472 40.5693V28.1227Z" fill="white"/>
<path d="M68.1904 39.504H67.3984V29.155H69.4297V29.9201H68.1904V39.504Z" fill="white"/>
<path d="M105.026 34.6389C105.024 34.3845 104.962 34.1339 104.844 33.9067C105.131 34.0445 105.374 34.2568 105.544 34.5199C105.714 34.783 105.805 35.0865 105.806 35.3967V41.3308C105.798 41.7711 105.614 42.1914 105.291 42.5028C104.969 42.8143 104.534 42.9925 104.078 43.0001H99.8793C99.5573 42.9982 99.2424 42.9094 98.9698 42.7438C98.6973 42.5782 98.4781 42.3424 98.3369 42.0629C98.5721 42.1772 98.8315 42.2374 99.0948 42.2386H103.298C103.753 42.2311 104.188 42.0528 104.511 41.7414C104.833 41.4299 105.018 41.0097 105.026 40.5693V34.6389Z" fill="white"/>
<path d="M100.167 32.9659V29.1477L102.199 29.1551V29.9202H100.959V32.9659H100.167Z" fill="white"/>
<path d="M112.673 35.6712H112.931L113.457 37.3112V42.9964H110.657V42.2313H112.673V35.6712Z" fill="white"/>
<path d="M117.63 27.2148H118.676L116.061 35.0818L118.676 42.9964H115.853L115.83 42.9049L115.61 42.2313H117.884L115.269 34.3204L117.63 27.2148Z" fill="white"/>
<path d="M125.255 42.224V27.2148H126.043V42.9891H123.246V42.224H125.255Z" fill="white"/>
<path d="M137.044 36.418L139.212 34.3241L140 35.0892L137.836 37.1831L137.044 36.418Z" fill="white"/>
<path d="M3.64939 36.418L5.81326 34.3277L6.60529 35.0892L4.45279 37.1831L3.64939 36.418Z" fill="white"/>
<path d="M18.5237 39.504H17.7354V35.6712H19.7629V36.451H18.5237V39.504Z" fill="white"/>
<path d="M31.0294 39.504H30.2412L30.245 29.155H32.2686V29.9201H31.0294V39.504Z" fill="white"/>
</g>
<path d="M2.16387 30.7913L0 32.8853L2.16387 34.9866L4.32775 32.8853L2.16387 30.7913Z" fill="white"/>
<path d="M135.559 30.795L133.395 32.8853L135.566 34.9866L137.726 32.8853L135.559 30.795Z" fill="white"/>
<path fill-rule="evenodd" clip-rule="evenodd" d="M20.9259 32.0312C21.0341 31.8108 21.0899 31.5697 21.0893 31.3258V26.6693C21.0853 26.2278 20.902 25.8054 20.5787 25.4932C20.2555 25.1809 19.8183 25.0038 19.3612 25H13.4342V40.7816H19.365C19.8209 40.774 20.2559 40.5958 20.5783 40.2843C20.9007 39.9729 21.0852 39.5526 21.093 39.1123V33.9506C21.0869 33.6962 21.0281 33.4457 20.9201 33.2136C20.812 32.9816 20.6569 32.7729 20.464 32.5998C20.6599 32.4459 20.8177 32.2516 20.9259 32.0312ZM16.2347 27.7053H18.266V31.5162H16.2347V27.7053ZM16.2347 34.2215H18.266V38.0543H16.2347V34.2215Z" fill="white"/>
<path fill-rule="evenodd" clip-rule="evenodd" d="M33.0883 25.4932C32.7651 25.1809 32.3278 25.0038 31.8707 25H27.6642C27.4372 24.9995 27.2122 25.0424 27.0024 25.1261C26.7925 25.2098 26.6018 25.3328 26.4412 25.4879C26.2806 25.643 26.1534 25.8272 26.0667 26.0299C25.98 26.2327 25.9357 26.45 25.9362 26.6693V39.1159C25.9401 39.5575 26.1235 39.9798 26.4467 40.2921C26.7699 40.6043 27.2072 40.7814 27.6642 40.7852H31.8707C32.3266 40.7777 32.7616 40.5994 33.084 40.288C33.4064 39.9765 33.591 39.5563 33.5988 39.1159V26.6693C33.5948 26.2278 33.4115 25.8054 33.0883 25.4932ZM28.7443 27.7053H30.7717L30.7755 38.0543H28.7443V27.7053Z" fill="white"/>
<path fill-rule="evenodd" clip-rule="evenodd" d="M42.3339 34.2215L43.4708 40.7816H46.2637L45.0965 34.0641C45.3927 33.9348 45.6442 33.726 45.8209 33.4624C45.9977 33.1989 46.0922 32.8918 46.0932 32.5778V26.6693C46.0947 26.4515 46.0518 26.2356 45.9669 26.0339C45.882 25.8321 45.7568 25.6485 45.5984 25.4935C45.4401 25.3385 45.2516 25.2151 45.0439 25.1304C44.8362 25.0458 44.6133 25.0014 44.3878 25H38.4609V40.7816H41.2614V34.2215H42.3339ZM41.2538 27.7053H43.2851V31.5162H41.2538V27.7053Z" fill="white"/>
<path fill-rule="evenodd" clip-rule="evenodd" d="M57.736 25.4932C57.4128 25.1809 56.9755 25.0038 56.5184 25H52.2968C51.8421 25.0048 51.4078 25.1829 51.0884 25.4956C50.7691 25.8082 50.5904 26.2301 50.5915 26.6693V39.1159C50.5954 39.5575 50.7787 39.9798 51.102 40.2921C51.4252 40.6043 51.8624 40.7814 52.3195 40.7852H56.5184C56.9743 40.7777 57.4093 40.5994 57.7317 40.288C58.0541 39.9765 58.2387 39.5563 58.2465 39.1159V26.6693C58.2425 26.2278 58.0592 25.8054 57.736 25.4932ZM53.3882 27.7053H55.4194V38.0543H53.3882V27.7053Z" fill="white"/>
<path fill-rule="evenodd" clip-rule="evenodd" d="M70.2455 25.4932C69.9223 25.1809 69.4851 25.0038 69.028 25H63.101V40.7852H69.028C69.4838 40.7777 69.9189 40.5994 70.2413 40.288C70.5637 39.9765 70.7482 39.5563 70.756 39.1159V26.6693C70.7521 26.2278 70.5687 25.8054 70.2455 25.4932ZM65.9015 27.7053H67.9328V38.0543H65.9015V27.7053Z" fill="white"/>
<path d="M78.5513 25H75.7508V40.7816H78.5513V25Z" fill="white"/>
<path d="M91.0154 40.7816V25H88.2035V31.4686L86.1495 25H83.3717V40.7816H86.1609V33.8883L88.2148 40.7816H91.0154Z" fill="white"/>
<path d="M103.014 32.0093C102.691 31.6971 102.254 31.52 101.797 31.5162H98.678V27.7053H100.709V30.4948L103.532 29.8615V26.6693C103.529 26.2278 103.345 25.8054 103.022 25.4932C102.699 25.1809 102.261 25.0038 101.804 25H97.5979C97.3715 25.0005 97.1474 25.044 96.9384 25.1282C96.7293 25.2123 96.5396 25.3354 96.3798 25.4904C96.22 25.6455 96.0934 25.8293 96.0072 26.0316C95.921 26.2339 95.8769 26.4506 95.8774 26.6693V32.5595C95.8779 32.7782 95.923 32.9947 96.0101 33.1966C96.0973 33.3985 96.2247 33.5819 96.3851 33.7362C96.5456 33.8905 96.736 34.0128 96.9454 34.0961C97.1548 34.1793 97.3791 34.222 97.6055 34.2215H100.709V38.058H98.678V35.2392L95.8774 35.8688V39.1159C95.8814 39.5562 96.0637 39.9775 96.3852 40.2895C96.7068 40.6016 97.1422 40.7795 97.5979 40.7852H101.797C102.253 40.7777 102.688 40.5994 103.01 40.288C103.333 39.9765 103.517 39.5563 103.525 39.1159V33.1855C103.521 32.7439 103.338 32.3216 103.014 32.0093Z" fill="white"/>
<path d="M116.387 40.7852L113.772 32.8707L116.41 25H113.564L111.415 31.5162H111.184V25H108.383V40.7816H111.184V34.2251H111.441L113.541 40.6937L113.564 40.7852H116.387Z" fill="white"/>
<path d="M123.773 25H120.972V40.7816H123.773V25Z" fill="white"/>
</svg>
